<?xml version="1.0" standalone="no"?>
<!DOCTYPE svg PUBLIC "-//W3C//DTD SVG 20010904//EN"
 "http://www.w3.org/TR/2001/REC-SVG-20010904/DTD/svg10.dtd">
<svg version="1.0" xmlns="http://www.w3.org/2000/svg"
 width="1000.000000pt" height="1000.000000pt" viewBox="0 0 1000.000000 1000.000000"
 preserveAspectRatio="xMidYMid meet">
<metadata>
Created by potrace 1.14, written by Peter Selinger 2001-2017
</metadata>
<g transform="translate(0.000000,1000.000000) scale(0.100000,-0.100000)"
fill="#000000" stroke="none">
<path d="M0 7320 l0 -2680 325 0 325 0 0 2680 0 2680 -325 0 -325 0 0 -2680z"/>
<path d="M4640 9675 l0 -325 2680 0 2680 0 0 325 0 325 -2680 0 -2680 0 0
-325z"/>
<path d="M3253 7350 c-99 -21 -158 -75 -189 -177 -19 -62 -460 -2556 -475
-2688 -17 -143 -6 -443 20 -567 55 -254 162 -466 322 -633 74 -78 77 -83 103
-175 33 -116 105 -270 176 -376 59 -87 195 -228 280 -291 324 -236 789 -342
1330 -304 568 40 982 189 1319 475 281 237 496 622 585 1041 61 293 496 2786
496 2846 0 75 -21 118 -72 146 -28 15 -63 19 -224 21 l-190 3 43 242 c59 325
54 373 -43 422 -37 19 -62 20 -472 23 -474 3 -520 -1 -590 -55 -71 -54 -66
-33 -323 -1476 -131 -738 -245 -1371 -253 -1407 -27 -113 -90 -225 -170 -304
-82 -82 -155 -124 -281 -162 -75 -22 -116 -27 -248 -31 l-158 -6 6 24 c3 13
105 582 226 1264 237 1331 240 1354 194 1405 -45 49 -69 55 -271 60 l-190 5
43 240 c58 324 54 371 -43 420 -37 19 -61 20 -474 22 -239 1 -454 -3 -477 -7z"/>
<path d="M9350 2680 l0 -2680 325 0 325 0 0 2680 0 2680 -325 0 -325 0 0
-2680z"/>
<path d="M0 325 l0 -325 2680 0 2680 0 0 325 0 325 -2680 0 -2680 0 0 -325z"/>
</g>
</svg>
